<svg width="37" height="37" viewBox="0 0 37 37" fill="none" xmlns="http://www.w3.org/2000/svg">
<rect x="0.5" y="0.5" width="36" height="36" rx="18" stroke="black"/>
<path d="M16.465 15.189C17.2539 15.189 17.8934 14.4559 17.8934 13.5516C17.8934 12.6473 17.2539 11.9142 16.465 11.9142C15.6761 11.9142 15.0366 12.6473 15.0366 13.5516C15.0366 14.4559 15.6761 15.189 16.465 15.189Z" stroke="black" stroke-miterlimit="10" stroke-linecap="round" stroke-linejoin="round"/>
<path d="M21.203 15.189C21.9919 15.189 22.6314 14.4559 22.6314 13.5516C22.6314 12.6473 21.9919 11.9142 21.203 11.9142C20.4142 11.9142 19.7747 12.6473 19.7747 13.5516C19.7747 14.4559 20.4142 15.189 21.203 15.189Z" stroke="black" stroke-miterlimit="10" stroke-linecap="round" stroke-linejoin="round"/>
<path d="M18.8339 20.3104C19.5073 20.3104 20.0532 19.4993 20.0532 18.4987C20.0532 17.4982 19.5073 16.6871 18.8339 16.6871C18.1604 16.6871 17.6145 17.4982 17.6145 18.4987C17.6145 19.4993 18.1604 20.3104 18.8339 20.3104Z" stroke="black" stroke-miterlimit="10" stroke-linecap="round" stroke-linejoin="round"/>
<path d="M27.056 17.2445C26.2547 17.8019 25.1747 17.1748 25.2444 16.1993C25.2792 15.9555 25.2792 15.7464 25.2792 15.5026C25.2792 11.6355 22.3876 8.5 18.8341 8.5C15.2805 8.5 12.3889 11.6355 12.3889 15.5026C12.3889 15.7464 12.3889 15.9903 12.4238 16.1993C12.5283 17.1748 11.4134 17.8019 10.6122 17.2445C10.3683 17.0703 10.1244 16.8613 9.84571 16.6174C8.38249 15.2587 6.77991 20.1709 12.8767 19.8922C13.3644 19.8574 13.8173 20.1361 14.0263 20.589C14.4793 21.669 14.7928 22.8535 14.967 24.0032C15.1412 25.0832 15.3154 25.9193 15.3851 26.6509C15.4199 27.2084 15.5941 27.7309 15.9425 28.149L15.9773 28.1838C16.256 28.5671 16.8134 28.5671 17.127 28.1838C17.2663 28.0096 17.4754 27.9051 17.6844 27.9051C17.8934 27.9051 18.1025 28.0096 18.2418 28.1838C18.3812 28.358 18.5902 28.4625 18.7992 28.4625C19.0083 28.4625 19.2173 28.358 19.3567 28.1838C19.6354 27.8006 20.1928 27.8006 20.5063 28.1838L20.6109 28.2884C20.9244 28.6019 21.4121 28.5671 21.656 28.1838C22.0044 27.7658 22.2134 27.2084 22.2134 26.6509C22.2483 25.8845 22.3876 25.1529 22.5618 24.1426C22.7709 22.9232 23.0844 21.7387 23.5721 20.589C23.7463 20.1361 24.1992 19.8574 24.7218 19.8922C30.8534 20.1709 29.2508 15.2587 27.7876 16.5826C27.5437 16.8613 27.2999 17.0703 27.056 17.2445Z" stroke="black" stroke-miterlimit="10" stroke-linecap="round" stroke-linejoin="round"/>
</svg>
