<svg width="16" height="14" viewBox="0 0 16 14" fill="none" xmlns="http://www.w3.org/2000/svg">
<path d="M0.694336 4.49695V4.5051C0.694327 4.95068 0.694309 5.59091 0.984486 6.38396C1.27559 7.17954 1.84315 8.09107 2.91885 9.13601C4.57913 10.7489 6.39703 12.0378 7.08532 12.5069C7.4523 12.757 7.93731 12.757 8.30423 12.5068C8.99237 12.0376 10.8097 10.7488 12.4699 9.13601C13.5455 8.09107 14.1131 7.17954 14.4042 6.38396C14.6944 5.59092 14.6944 4.95068 14.6943 4.5051V4.49695C14.6943 2.45718 13.2577 0.694458 11.0372 0.694458C9.99964 0.694458 9.19681 1.16736 8.60159 1.76449C8.23387 2.1334 7.93533 2.55882 7.69436 2.97291C7.4534 2.55882 7.15484 2.1334 6.78713 1.76449C6.19192 1.16736 5.38908 0.694458 4.35149 0.694458C2.131 0.694458 0.694336 2.45718 0.694336 4.49695Z" stroke="#424242" stroke-width="1.38889"/>
</svg>
