<svg width="37" height="37" viewBox="0 0 37 37" fill="none" xmlns="http://www.w3.org/2000/svg">
<rect x="0.5" y="0.5" width="36" height="36" rx="18" stroke="#A1A1A1"/>
<path d="M9.71509 16.0387V15.8462C9.71509 15.2017 9.84936 14.5863 10.0911 14.0291L13.1368 14.8862C12.9219 15.1457 12.7944 15.4814 12.7944 15.8462V16.0387C12.7944 16.8801 13.4792 17.5626 14.3184 17.5626H17.3596L18.3353 20.6397H14.3184C11.7784 20.6397 9.71509 18.5742 9.71509 16.0364V16.0387Z" fill="#FFCF06"/>
<path d="M20.2801 26.7692H13.8865L14.202 27.5099L12.4431 26.7692L11.2525 26.2679L8.79761 25.2318L11.2525 24.1957L12.4453 23.6922L14.202 22.9514L13.8865 23.6922H19.3044L20.2801 26.7692Z" fill="#BBDB03"/>
<path d="M28.2131 22.1659C28.2131 24.7059 26.1475 26.7692 23.6075 26.7692H21.5711L20.5931 23.6922H23.6053C24.449 23.6922 25.1293 23.0074 25.1293 22.1682C25.1293 21.329 24.4467 20.6442 23.6053 20.6442H19.6264L18.6484 17.5671H23.6053C26.1453 17.5671 28.2108 19.6327 28.2108 22.1704L28.2131 22.1659Z" fill="#E2A305"/>
<path d="M15.6655 14.32L10.7534 12.9348C11.5993 11.9009 12.8816 11.2407 14.3183 11.2407H24.0396L23.7241 10.5L25.4786 11.2407L26.6713 11.7443L29.1285 12.7804L26.6713 13.8165L25.4786 14.32L23.7241 15.0608L24.0396 14.32H15.6655Z" fill="#05A8DB"/>
</svg>
