<svg width="21" height="20" viewBox="0 0 21 20" fill="none" xmlns="http://www.w3.org/2000/svg">
<path d="M8.6875 1.53662C9.13653 0.154653 11.092 0.154657 11.541 1.53662L12.5576 4.66553C12.8924 5.6952 13.8519 6.39188 14.9346 6.39209H18.2246C19.6777 6.39209 20.2819 8.25183 19.1064 9.10596L16.4453 11.0396C15.5692 11.6761 15.2026 12.8045 15.5371 13.8345L16.5537 16.9634C17.0027 18.3453 15.4207 19.4942 14.2451 18.6401L11.584 16.7065C10.7078 16.0699 9.52075 16.0699 8.64453 16.7065L5.9834 18.6401C4.80783 19.4942 3.22578 18.3453 3.6748 16.9634L4.69141 13.8345C5.02596 12.8045 4.65936 11.6761 3.7832 11.0396L1.12207 9.10596C-0.0533802 8.25182 0.55086 6.39209 2.00391 6.39209H5.29395C6.37666 6.39188 7.33614 5.6952 7.6709 4.66553L8.6875 1.53662Z" fill="#FFCF06" stroke="black"/>
</svg>
