<svg width="21" height="20" viewBox="0 0 21 20" fill="none" xmlns="http://www.w3.org/2000/svg">
<path d="M8.4502 1.45947C8.97406 -0.152822 11.2545 -0.15282 11.7783 1.45947L12.7949 4.5874C13.0961 5.5143 13.96 6.14188 14.9346 6.14209H18.2246C19.9199 6.14209 20.6244 8.31165 19.2529 9.30811L16.5918 11.2417C15.8033 11.8146 15.4733 12.8303 15.7744 13.7573L16.791 16.8862C17.3148 18.4983 15.4701 19.839 14.0986 18.8433L11.4365 16.9087C10.6481 16.3361 9.58042 16.3361 8.79199 16.9087L6.12988 18.8433C4.75844 19.839 2.9137 18.4983 3.4375 16.8862L4.4541 13.7573C4.75517 12.8303 4.42524 11.8146 3.63672 11.2417L0.975586 9.30811C-0.395914 8.31165 0.308641 6.14209 2.00391 6.14209H5.29395C6.26851 6.14188 7.13243 5.5143 7.43359 4.5874L8.4502 1.45947Z" stroke="black" stroke-width="0.5"/>
</svg>
